<mxfile host="app.diagrams.net" modified="2022-04-12T19:31:09.073Z" agent="5.0 (Macintosh; Intel Mac OS X 10_15_7) AppleWebKit/605.1.15 (KHTML, like Gecko) Version/15.4 Safari/605.1.15" etag="BJZ1i_Ar4w8in43OgtJn" version="17.4.3" type="github">
  <diagram id="5HC-pcOWHWcu-DSq-r_J" name="Page-1">
    <mxGraphModel dx="1757" dy="1078" grid="1" gridSize="10" guides="1" tooltips="1" connect="1" arrows="1" fold="1" page="1" pageScale="1" pageWidth="850" pageHeight="1100" math="0" shadow="0">
      <root>
        <mxCell id="0" />
        <mxCell id="1" parent="0" />
        <mxCell id="h_MuEBLozcbpam1zxxS4-10" style="edgeStyle=orthogonalEdgeStyle;rounded=0;orthogonalLoop=1;jettySize=auto;html=1;entryX=0.5;entryY=0;entryDx=0;entryDy=0;" edge="1" parent="1" source="h_MuEBLozcbpam1zxxS4-1" target="h_MuEBLozcbpam1zxxS4-43">
          <mxGeometry relative="1" as="geometry" />
        </mxCell>
        <mxCell id="h_MuEBLozcbpam1zxxS4-1" value="Outbound" style="ellipse;whiteSpace=wrap;html=1;aspect=fixed;fillColor=#d5e8d4;strokeColor=#82b366;" vertex="1" parent="1">
          <mxGeometry x="550" y="60" width="80" height="80" as="geometry" />
        </mxCell>
        <mxCell id="h_MuEBLozcbpam1zxxS4-14" style="edgeStyle=orthogonalEdgeStyle;rounded=0;orthogonalLoop=1;jettySize=auto;html=1;" edge="1" parent="1" source="h_MuEBLozcbpam1zxxS4-2" target="h_MuEBLozcbpam1zxxS4-5">
          <mxGeometry relative="1" as="geometry" />
        </mxCell>
        <mxCell id="h_MuEBLozcbpam1zxxS4-2" value="Inbound" style="ellipse;whiteSpace=wrap;html=1;aspect=fixed;fillColor=#d5e8d4;strokeColor=#82b366;" vertex="1" parent="1">
          <mxGeometry x="290" y="150" width="80" height="80" as="geometry" />
        </mxCell>
        <mxCell id="h_MuEBLozcbpam1zxxS4-12" style="edgeStyle=orthogonalEdgeStyle;rounded=0;orthogonalLoop=1;jettySize=auto;html=1;" edge="1" parent="1" source="h_MuEBLozcbpam1zxxS4-3" target="h_MuEBLozcbpam1zxxS4-11">
          <mxGeometry relative="1" as="geometry" />
        </mxCell>
        <mxCell id="h_MuEBLozcbpam1zxxS4-29" value="Hang up &lt;br&gt;mid message" style="edgeStyle=orthogonalEdgeStyle;rounded=0;orthogonalLoop=1;jettySize=auto;html=1;" edge="1" parent="1" source="h_MuEBLozcbpam1zxxS4-3" target="h_MuEBLozcbpam1zxxS4-28">
          <mxGeometry relative="1" as="geometry" />
        </mxCell>
        <mxCell id="h_MuEBLozcbpam1zxxS4-31" style="edgeStyle=orthogonalEdgeStyle;rounded=0;orthogonalLoop=1;jettySize=auto;html=1;entryX=0;entryY=0.5;entryDx=0;entryDy=0;" edge="1" parent="1" target="h_MuEBLozcbpam1zxxS4-30">
          <mxGeometry relative="1" as="geometry">
            <mxPoint x="590" y="630" as="sourcePoint" />
            <Array as="points">
              <mxPoint x="590" y="650" />
              <mxPoint x="655" y="650" />
              <mxPoint x="655" y="710" />
            </Array>
          </mxGeometry>
        </mxCell>
        <mxCell id="h_MuEBLozcbpam1zxxS4-32" value="No" style="edgeLabel;html=1;align=center;verticalAlign=middle;resizable=0;points=[];" vertex="1" connectable="0" parent="h_MuEBLozcbpam1zxxS4-31">
          <mxGeometry x="-0.1412" y="-2" relative="1" as="geometry">
            <mxPoint as="offset" />
          </mxGeometry>
        </mxCell>
        <mxCell id="h_MuEBLozcbpam1zxxS4-3" value="Play short intro" style="rounded=0;whiteSpace=wrap;html=1;" vertex="1" parent="1">
          <mxGeometry x="530" y="440" width="120" height="60" as="geometry" />
        </mxCell>
        <mxCell id="h_MuEBLozcbpam1zxxS4-6" style="edgeStyle=orthogonalEdgeStyle;rounded=0;orthogonalLoop=1;jettySize=auto;html=1;" edge="1" parent="1" source="h_MuEBLozcbpam1zxxS4-4" target="h_MuEBLozcbpam1zxxS4-3">
          <mxGeometry relative="1" as="geometry" />
        </mxCell>
        <mxCell id="h_MuEBLozcbpam1zxxS4-7" value="No" style="edgeLabel;html=1;align=center;verticalAlign=middle;resizable=0;points=[];" vertex="1" connectable="0" parent="h_MuEBLozcbpam1zxxS4-6">
          <mxGeometry x="-0.1143" y="1" relative="1" as="geometry">
            <mxPoint as="offset" />
          </mxGeometry>
        </mxCell>
        <mxCell id="h_MuEBLozcbpam1zxxS4-9" style="edgeStyle=orthogonalEdgeStyle;rounded=0;orthogonalLoop=1;jettySize=auto;html=1;" edge="1" parent="1" source="h_MuEBLozcbpam1zxxS4-4" target="h_MuEBLozcbpam1zxxS4-8">
          <mxGeometry relative="1" as="geometry" />
        </mxCell>
        <mxCell id="h_MuEBLozcbpam1zxxS4-23" value="Yes" style="edgeLabel;html=1;align=center;verticalAlign=middle;resizable=0;points=[];" vertex="1" connectable="0" parent="h_MuEBLozcbpam1zxxS4-9">
          <mxGeometry x="-0.0667" y="1" relative="1" as="geometry">
            <mxPoint as="offset" />
          </mxGeometry>
        </mxCell>
        <mxCell id="h_MuEBLozcbpam1zxxS4-4" value="Machine?" style="rhombus;whiteSpace=wrap;html=1;" vertex="1" parent="1">
          <mxGeometry x="550" y="290" width="80" height="80" as="geometry" />
        </mxCell>
        <mxCell id="h_MuEBLozcbpam1zxxS4-16" style="edgeStyle=orthogonalEdgeStyle;rounded=0;orthogonalLoop=1;jettySize=auto;html=1;" edge="1" parent="1" source="h_MuEBLozcbpam1zxxS4-5" target="h_MuEBLozcbpam1zxxS4-15">
          <mxGeometry relative="1" as="geometry" />
        </mxCell>
        <mxCell id="h_MuEBLozcbpam1zxxS4-37" style="edgeStyle=orthogonalEdgeStyle;rounded=0;orthogonalLoop=1;jettySize=auto;html=1;exitX=0;exitY=0.75;exitDx=0;exitDy=0;entryX=0.5;entryY=0;entryDx=0;entryDy=0;" edge="1" parent="1" source="h_MuEBLozcbpam1zxxS4-5" target="h_MuEBLozcbpam1zxxS4-36">
          <mxGeometry relative="1" as="geometry">
            <Array as="points">
              <mxPoint x="240" y="355" />
              <mxPoint x="240" y="405" />
              <mxPoint x="160" y="405" />
            </Array>
          </mxGeometry>
        </mxCell>
        <mxCell id="h_MuEBLozcbpam1zxxS4-38" value="Listen &amp;gt;= 30" style="edgeLabel;html=1;align=center;verticalAlign=middle;resizable=0;points=[];" vertex="1" connectable="0" parent="h_MuEBLozcbpam1zxxS4-37">
          <mxGeometry x="0.181" relative="1" as="geometry">
            <mxPoint as="offset" />
          </mxGeometry>
        </mxCell>
        <mxCell id="h_MuEBLozcbpam1zxxS4-40" value="Listen &amp;lt; 30 sec" style="edgeStyle=orthogonalEdgeStyle;rounded=0;orthogonalLoop=1;jettySize=auto;html=1;" edge="1" parent="1" source="h_MuEBLozcbpam1zxxS4-5" target="h_MuEBLozcbpam1zxxS4-39">
          <mxGeometry relative="1" as="geometry" />
        </mxCell>
        <mxCell id="h_MuEBLozcbpam1zxxS4-5" value="Play longer message" style="rounded=0;whiteSpace=wrap;html=1;" vertex="1" parent="1">
          <mxGeometry x="270" y="310" width="120" height="60" as="geometry" />
        </mxCell>
        <mxCell id="h_MuEBLozcbpam1zxxS4-25" value="" style="edgeStyle=orthogonalEdgeStyle;rounded=0;orthogonalLoop=1;jettySize=auto;html=1;" edge="1" parent="1" source="h_MuEBLozcbpam1zxxS4-8" target="h_MuEBLozcbpam1zxxS4-24">
          <mxGeometry relative="1" as="geometry" />
        </mxCell>
        <mxCell id="h_MuEBLozcbpam1zxxS4-8" value="Play short intro" style="rounded=0;whiteSpace=wrap;html=1;" vertex="1" parent="1">
          <mxGeometry x="690" y="300" width="120" height="60" as="geometry" />
        </mxCell>
        <mxCell id="h_MuEBLozcbpam1zxxS4-13" style="edgeStyle=orthogonalEdgeStyle;rounded=0;orthogonalLoop=1;jettySize=auto;html=1;entryX=1;entryY=0.5;entryDx=0;entryDy=0;" edge="1" parent="1" source="h_MuEBLozcbpam1zxxS4-11" target="h_MuEBLozcbpam1zxxS4-5">
          <mxGeometry relative="1" as="geometry" />
        </mxCell>
        <mxCell id="h_MuEBLozcbpam1zxxS4-21" value="Yes" style="edgeLabel;html=1;align=center;verticalAlign=middle;resizable=0;points=[];" vertex="1" connectable="0" parent="h_MuEBLozcbpam1zxxS4-13">
          <mxGeometry x="-0.1366" y="-1" relative="1" as="geometry">
            <mxPoint as="offset" />
          </mxGeometry>
        </mxCell>
        <mxCell id="h_MuEBLozcbpam1zxxS4-20" style="edgeStyle=orthogonalEdgeStyle;rounded=0;orthogonalLoop=1;jettySize=auto;html=1;" edge="1" parent="1" source="h_MuEBLozcbpam1zxxS4-11" target="h_MuEBLozcbpam1zxxS4-19">
          <mxGeometry relative="1" as="geometry" />
        </mxCell>
        <mxCell id="h_MuEBLozcbpam1zxxS4-22" value="No" style="edgeLabel;html=1;align=center;verticalAlign=middle;resizable=0;points=[];" vertex="1" connectable="0" parent="h_MuEBLozcbpam1zxxS4-20">
          <mxGeometry x="0.1429" relative="1" as="geometry">
            <mxPoint as="offset" />
          </mxGeometry>
        </mxCell>
        <mxCell id="h_MuEBLozcbpam1zxxS4-34" style="edgeStyle=orthogonalEdgeStyle;rounded=0;orthogonalLoop=1;jettySize=auto;html=1;entryX=0.5;entryY=0;entryDx=0;entryDy=0;" edge="1" parent="1" source="h_MuEBLozcbpam1zxxS4-11" target="h_MuEBLozcbpam1zxxS4-33">
          <mxGeometry relative="1" as="geometry" />
        </mxCell>
        <mxCell id="h_MuEBLozcbpam1zxxS4-35" value="Yes" style="edgeLabel;html=1;align=center;verticalAlign=middle;resizable=0;points=[];" vertex="1" connectable="0" parent="h_MuEBLozcbpam1zxxS4-34">
          <mxGeometry x="0.1043" y="3" relative="1" as="geometry">
            <mxPoint as="offset" />
          </mxGeometry>
        </mxCell>
        <mxCell id="h_MuEBLozcbpam1zxxS4-11" value="More info?" style="rhombus;whiteSpace=wrap;html=1;" vertex="1" parent="1">
          <mxGeometry x="550" y="550" width="80" height="80" as="geometry" />
        </mxCell>
        <mxCell id="h_MuEBLozcbpam1zxxS4-18" style="edgeStyle=orthogonalEdgeStyle;rounded=0;orthogonalLoop=1;jettySize=auto;html=1;entryX=0.5;entryY=0;entryDx=0;entryDy=0;" edge="1" parent="1" source="h_MuEBLozcbpam1zxxS4-15" target="h_MuEBLozcbpam1zxxS4-17">
          <mxGeometry relative="1" as="geometry" />
        </mxCell>
        <mxCell id="h_MuEBLozcbpam1zxxS4-42" style="edgeStyle=orthogonalEdgeStyle;rounded=0;orthogonalLoop=1;jettySize=auto;html=1;" edge="1" parent="1" source="h_MuEBLozcbpam1zxxS4-15" target="h_MuEBLozcbpam1zxxS4-41">
          <mxGeometry relative="1" as="geometry">
            <Array as="points">
              <mxPoint x="330" y="560" />
              <mxPoint x="160" y="560" />
            </Array>
          </mxGeometry>
        </mxCell>
        <mxCell id="h_MuEBLozcbpam1zxxS4-15" value="Speak to Agent?" style="rhombus;whiteSpace=wrap;html=1;" vertex="1" parent="1">
          <mxGeometry x="290" y="450" width="80" height="80" as="geometry" />
        </mxCell>
        <mxCell id="h_MuEBLozcbpam1zxxS4-17" value="Send to Flex" style="rounded=0;whiteSpace=wrap;html=1;" vertex="1" parent="1">
          <mxGeometry x="270" y="610" width="120" height="60" as="geometry" />
        </mxCell>
        <mxCell id="h_MuEBLozcbpam1zxxS4-19" value="End" style="ellipse;whiteSpace=wrap;html=1;aspect=fixed;fillColor=#f8cecc;strokeColor=#b85450;" vertex="1" parent="1">
          <mxGeometry x="550" y="700" width="80" height="80" as="geometry" />
        </mxCell>
        <mxCell id="h_MuEBLozcbpam1zxxS4-27" style="edgeStyle=orthogonalEdgeStyle;rounded=0;orthogonalLoop=1;jettySize=auto;html=1;" edge="1" parent="1" source="h_MuEBLozcbpam1zxxS4-24" target="h_MuEBLozcbpam1zxxS4-26">
          <mxGeometry relative="1" as="geometry" />
        </mxCell>
        <mxCell id="h_MuEBLozcbpam1zxxS4-24" value="Machine Message completed&lt;br&gt;D" style="whiteSpace=wrap;html=1;rounded=0;fillColor=#dae8fc;strokeColor=#6c8ebf;" vertex="1" parent="1">
          <mxGeometry x="890" y="300" width="120" height="60" as="geometry" />
        </mxCell>
        <mxCell id="h_MuEBLozcbpam1zxxS4-26" value="End" style="ellipse;whiteSpace=wrap;html=1;aspect=fixed;fillColor=#f8cecc;strokeColor=#b85450;" vertex="1" parent="1">
          <mxGeometry x="1070" y="290" width="80" height="80" as="geometry" />
        </mxCell>
        <mxCell id="h_MuEBLozcbpam1zxxS4-28" value="Human Message disconnected&lt;br&gt;D" style="whiteSpace=wrap;html=1;rounded=0;fillColor=#dae8fc;strokeColor=#6c8ebf;" vertex="1" parent="1">
          <mxGeometry x="790" y="440" width="120" height="60" as="geometry" />
        </mxCell>
        <mxCell id="h_MuEBLozcbpam1zxxS4-30" value="Message Played for human" style="whiteSpace=wrap;html=1;rounded=0;fillColor=#dae8fc;strokeColor=#6c8ebf;" vertex="1" parent="1">
          <mxGeometry x="720" y="680" width="120" height="60" as="geometry" />
        </mxCell>
        <mxCell id="h_MuEBLozcbpam1zxxS4-33" value="More Info Requested" style="whiteSpace=wrap;html=1;rounded=0;fillColor=#dae8fc;strokeColor=#6c8ebf;" vertex="1" parent="1">
          <mxGeometry x="380" y="710" width="120" height="60" as="geometry" />
        </mxCell>
        <mxCell id="h_MuEBLozcbpam1zxxS4-36" value="Counsel message fully played&lt;br&gt;D:&amp;nbsp;System Counsel" style="whiteSpace=wrap;html=1;rounded=0;fillColor=#dae8fc;strokeColor=#6c8ebf;" vertex="1" parent="1">
          <mxGeometry x="100" y="440" width="120" height="60" as="geometry" />
        </mxCell>
        <mxCell id="h_MuEBLozcbpam1zxxS4-39" value="Event: Partial System Counsel" style="whiteSpace=wrap;html=1;rounded=0;fillColor=#dae8fc;strokeColor=#6c8ebf;" vertex="1" parent="1">
          <mxGeometry x="40" y="280" width="120" height="60" as="geometry" />
        </mxCell>
        <mxCell id="h_MuEBLozcbpam1zxxS4-41" value="Passed to Agent&lt;br&gt;D:&amp;nbsp;System Counsel" style="whiteSpace=wrap;html=1;rounded=0;fillColor=#dae8fc;strokeColor=#6c8ebf;" vertex="1" parent="1">
          <mxGeometry x="100" y="610" width="120" height="60" as="geometry" />
        </mxCell>
        <mxCell id="h_MuEBLozcbpam1zxxS4-44" value="Answered" style="edgeStyle=orthogonalEdgeStyle;rounded=0;orthogonalLoop=1;jettySize=auto;html=1;entryX=0.5;entryY=0;entryDx=0;entryDy=0;" edge="1" parent="1" source="h_MuEBLozcbpam1zxxS4-43" target="h_MuEBLozcbpam1zxxS4-4">
          <mxGeometry relative="1" as="geometry" />
        </mxCell>
        <mxCell id="h_MuEBLozcbpam1zxxS4-46" value="" style="edgeStyle=orthogonalEdgeStyle;rounded=0;orthogonalLoop=1;jettySize=auto;html=1;" edge="1" parent="1" source="h_MuEBLozcbpam1zxxS4-43" target="h_MuEBLozcbpam1zxxS4-45">
          <mxGeometry relative="1" as="geometry" />
        </mxCell>
        <mxCell id="h_MuEBLozcbpam1zxxS4-48" style="edgeStyle=orthogonalEdgeStyle;rounded=0;orthogonalLoop=1;jettySize=auto;html=1;entryX=0;entryY=0.5;entryDx=0;entryDy=0;" edge="1" parent="1" source="h_MuEBLozcbpam1zxxS4-43" target="h_MuEBLozcbpam1zxxS4-47">
          <mxGeometry relative="1" as="geometry" />
        </mxCell>
        <mxCell id="h_MuEBLozcbpam1zxxS4-43" value="Attempt Phone Call" style="rounded=0;whiteSpace=wrap;html=1;" vertex="1" parent="1">
          <mxGeometry x="530" y="170" width="120" height="60" as="geometry" />
        </mxCell>
        <mxCell id="h_MuEBLozcbpam1zxxS4-45" value="No answer" style="whiteSpace=wrap;html=1;rounded=0;" vertex="1" parent="1">
          <mxGeometry x="780" y="130" width="120" height="60" as="geometry" />
        </mxCell>
        <mxCell id="h_MuEBLozcbpam1zxxS4-47" value="Telco Error" style="whiteSpace=wrap;html=1;rounded=0;" vertex="1" parent="1">
          <mxGeometry x="780" y="50" width="120" height="60" as="geometry" />
        </mxCell>
      </root>
    </mxGraphModel>
  </diagram>
</mxfile>
